<svg viewBox="0 0 1024 1024" xmlns="http://www.w3.org/2000/svg" width="36" height="36"><path d="M853.333 85.333a85.333 85.333 0 0 1 85.334 85.334v512A85.333 85.333 0 0 1 853.333 768H170.667a85.333 85.333 0 0 1-85.334-85.333v-512a85.333 85.333 0 0 1 85.334-85.334h682.666zm0 59.734H170.667a25.6 25.6 0 0 0-25.259 21.461l-.341 4.139v512a25.6 25.6 0 0 0 21.461 25.258l4.139.342h682.666a25.6 25.6 0 0 0 25.259-21.462l.341-4.138v-512a25.6 25.6 0 0 0-21.461-25.259l-4.139-.341z" fill="#35c4f0"/><path d="M813.653 341.12a29.867 29.867 0 0 1-.725 39.253l-2.901 2.816L646.613 520.32a72.533 72.533 0 0 1-98.005-4.31l-4.224-4.607-109.653-130.688a12.8 12.8 0 0 0-15.531-3.2l-2.475 1.621-163.84 138.155a29.867 29.867 0 0 1-41.429-42.838l2.901-2.816 163.84-138.154a72.576 72.576 0 0 1 98.134 4.224l4.181 4.608 109.653 130.688a12.8 12.8 0 0 0 15.574 3.2l2.432-1.622 163.413-137.13a29.867 29.867 0 0 1 42.112 3.669zm9.814 512.213a29.867 29.867 0 0 1 0 59.734H200.533a29.867 29.867 0 0 1 0-59.734h622.934z" fill="#35c4f0"/></svg>